<svg height="40pt" viewBox="0 0 512 512" width="40pt" xmlns="http://www.w3.org/2000/svg"><path d="m456.402344 7.5h-176.355469c-26.5625 0-48.097656 21.535156-48.097656 48.097656v176.355469c0 26.5625 21.535156 48.097656 48.097656 48.097656h176.355469c26.5625 0 48.097656-21.535156 48.097656-48.097656v-176.355469c0-26.5625-21.535156-48.097656-48.097656-48.097656zm-128.257813 112.226562c-8.855469 0-16.03125-7.179687-16.03125-16.03125 0-8.855468 7.175781-16.035156 16.03125-16.035156s16.03125 7.179688 16.03125 16.035156c0 8.851563-7.175781 16.03125-16.03125 16.03125zm80.160157 80.160157c-8.851563 0-16.03125-7.175781-16.03125-16.03125s7.179687-16.03125 16.03125-16.03125c8.855468 0 16.035156 7.175781 16.035156 16.03125s-7.179688 16.03125-16.035156 16.03125zm0 0" fill="#c3ddff"/><path d="m456.402344 39.566406h-176.355469c-8.851563 0-16.03125 7.175782-16.03125 16.03125v176.355469c0 8.851563 7.179687 16.03125 16.03125 16.03125h176.355469c8.855468 0 16.03125-7.179687 16.03125-16.03125v-176.355469c0-8.855468-7.175782-16.03125-16.03125-16.03125zm-128.257813 80.160156c-8.855469 0-16.03125-7.179687-16.03125-16.03125 0-8.855468 7.175781-16.035156 16.03125-16.035156s16.03125 7.179688 16.03125 16.035156c0 8.851563-7.175781 16.03125-16.03125 16.03125zm80.160157 80.160157c-8.851563 0-16.03125-7.175781-16.03125-16.03125s7.179687-16.03125 16.03125-16.03125c8.855468 0 16.035156 7.175781 16.035156 16.03125s-7.179688 16.03125-16.035156 16.03125zm0 0" fill="#a4ccff"/><path d="m492.179688 264.015625h-115.945313c-6.351563 0-12.222656-3.703125-14.65625-9.570313-19.5-46.964843-57.058594-84.523437-104.023437-104.023437-5.867188-2.433594-9.570313-8.304687-9.570313-14.65625v-115.945313c-9.820313 8.804688-16.03125 21.550782-16.03125 35.777344v176.355469c0 26.5625 21.53125 48.097656 48.097656 48.097656h176.351563c14.226562-.003906 26.972656-6.214843 35.777344-16.035156zm0 0" fill="#a4ccff"/><path d="m358.746094 247.984375c-19.183594-41.722656-53.007813-75.535156-94.730469-94.71875v78.6875c0 8.851563 7.179687 16.03125 16.03125 16.03125zm0 0" fill="#8bb3ea"/><path d="m456.402344 39.566406h-176.355469c-8.851563 0-16.03125 7.175782-16.03125 16.03125v8.015625h136.273437c26.519532 0 48.097657 21.574219 48.097657 48.097657v136.273437h8.015625c8.855468 0 16.03125-7.179687 16.03125-16.03125v-176.355469c0-8.855468-7.175782-16.03125-16.03125-16.03125zm0 0" fill="#8bb3ea"/><path d="m183.855469 151.789062c-97.398438 0-176.355469 78.957032-176.355469 176.355469 0 97.398438 78.957031 176.355469 176.355469 176.355469 97.398437 0 176.355469-78.957031 176.355469-176.355469 0-97.398437-78.957032-176.355469-176.355469-176.355469zm-40.082031 232.46875c-8.851563 0-16.03125-7.179687-16.03125-16.03125 0-8.855468 7.179687-16.03125 16.03125-16.03125 8.855468 0 16.03125 7.175782 16.03125 16.03125 0 8.851563-7.175782 16.03125-16.03125 16.03125zm0-80.160156c-8.851563 0-16.03125-7.179687-16.03125-16.03125 0-8.855468 7.179687-16.035156 16.03125-16.035156 8.855468 0 16.03125 7.179688 16.03125 16.035156 0 8.851563-7.175782 16.03125-16.03125 16.03125zm80.160156 80.160156c-8.851563 0-16.03125-7.179687-16.03125-16.03125 0-8.855468 7.179687-16.03125 16.03125-16.03125 8.855468 0 16.035156 7.175782 16.035156 16.03125 0 8.851563-7.179688 16.03125-16.035156 16.03125zm0-80.160156c-8.851563 0-16.03125-7.179687-16.03125-16.03125 0-8.855468 7.179687-16.035156 16.03125-16.035156 8.855468 0 16.035156 7.179688 16.035156 16.035156 0 8.851563-7.179688 16.03125-16.035156 16.03125zm0 0" fill="#ff9a9f"/><path d="m183.855469 183.855469c-79.691407 0-144.289063 64.601562-144.289063 144.289062 0 79.691407 64.597656 144.289063 144.289063 144.289063 79.6875 0 144.289062-64.597656 144.289062-144.289063 0-79.6875-99.644531-144.289062-144.289062-144.289062zm-40.082031 200.402343c-8.851563 0-16.03125-7.179687-16.03125-16.03125 0-8.855468 7.179687-16.03125 16.03125-16.03125 8.855468 0 16.03125 7.175782 16.03125 16.03125 0 8.851563-7.175782 16.03125-16.03125 16.03125zm0-80.160156c-8.851563 0-16.03125-7.179687-16.03125-16.03125 0-8.855468 7.179687-16.035156 16.03125-16.035156 8.855468 0 16.03125 7.179688 16.03125 16.035156 0 8.851563-7.175782 16.03125-16.03125 16.03125zm80.160156 80.160156c-8.851563 0-16.03125-7.179687-16.03125-16.03125 0-8.855468 7.179687-16.03125 16.03125-16.03125 8.855468 0 16.035156 7.175782 16.035156 16.03125 0 8.851563-7.179688 16.03125-16.035156 16.03125zm0-80.160156c-8.851563 0-16.03125-7.179687-16.03125-16.03125 0-8.855468 7.179687-16.035156 16.03125-16.035156 8.855468 0 16.035156 7.179688 16.035156 16.035156 0 8.851563-7.179688 16.03125-16.035156 16.03125zm0 0" fill="#ff8086"/><path d="m196.128906 492.226562c-97.398437 0-176.355468-78.957031-176.355468-176.355468 0-45.578125 17.292968-87.113282 45.671874-118.410156-35.589843 32.265624-57.945312 78.863281-57.945312 130.683593 0 97.398438 78.957031 176.355469 176.355469 176.355469 51.820312 0 98.417969-22.355469 130.683593-57.945312-31.300781 28.378906-72.832031 45.671874-118.410156 45.671874zm0 0" fill="#ff8086"/><path d="m183.855469 183.855469c-43.226563 0-81.90625 19.105469-108.351563 49.214843 25.402344-22.304687 58.609375-35.9375 95.074219-35.9375 79.6875 0 144.289063 64.601563 144.289063 144.289063 0 36.464844-13.632813 69.671875-35.9375 95.074219 30.109374-26.445313 49.214843-65.125 49.214843-108.351563 0-79.6875-64.601562-144.289062-144.289062-144.289062zm0 0" fill="#e5646e"/><path d="m456.402344 0h-176.355469c-30.65625 0-55.597656 24.941406-55.597656 55.597656v93.21875c-13.0625-2.957031-26.648438-4.527344-40.59375-4.527344-101.378907 0-183.855469 82.476563-183.855469 183.855469 0 101.378907 82.476562 183.855469 183.855469 183.855469 101.378906 0 183.855469-82.476562 183.855469-183.855469 0-13.945312-1.570313-27.53125-4.527344-40.597656h93.21875c30.65625 0 55.597656-24.941406 55.597656-55.597656v-176.351563c0-30.65625-24.941406-55.597656-55.597656-55.597656zm-272.546875 497c-93.109375 0-168.855469-75.746094-168.855469-168.855469 0-93.105469 75.746094-168.855469 168.855469-168.855469 93.105469 0 168.855469 75.75 168.855469 168.855469 0 93.109375-75.75 168.855469-168.855469 168.855469zm313.144531-265.046875c0 22.382813-18.210938 40.597656-40.597656 40.597656h-97.292969c-18.039063-56.738281-62.917969-101.621093-119.65625-119.660156v-97.292969c0-22.386718 18.210937-40.597656 40.597656-40.597656h176.351563c22.386718 0 40.597656 18.210938 40.597656 40.597656zm0 0"/><path d="m291.867188 232.261719c-3.234376 2.589843-3.753907 7.308593-1.167969 10.542969 43.589843 54.4375 39.238281 132.707031-10.121094 182.066406-49.355469 49.355468-127.628906 53.707031-182.0625 10.117187-3.234375-2.589843-7.953125-2.0625-10.542969 1.167969-2.589844 3.234375-2.066406 7.953125 1.167969 10.542969 27.863281 22.308593 61.339844 33.300781 94.710937 33.300781 38.988282 0 77.824219-15.011719 107.335938-44.523438 54.769531-54.773437 59.59375-141.632812 11.222656-202.046874-2.589844-3.234376-7.308594-3.753907-10.542968-1.167969zm0 0"/><path d="m87.128906 231.421875c49.355469-49.359375 127.628906-53.710937 182.0625-10.121094 3.234375 2.589844 7.953125 2.0625 10.542969-1.167969 2.589844-3.234374 2.066406-7.953124-1.167969-10.542968-60.414062-48.371094-147.273437-43.546875-202.046875 11.222656-54.769531 54.773438-59.59375 141.632812-11.21875 202.046875 1.480469 1.851563 3.660157 2.8125 5.859375 2.8125 1.644532 0 3.300782-.539063 4.683594-1.644531 3.230469-2.589844 3.753906-7.308594 1.164062-10.542969-43.585937-54.4375-39.234374-132.707031 10.121094-182.0625zm0 0"/><path d="m386.972656 173.125c.085938.089844.179688.164062.273438.25-1.578125 3.15625-2.472656 6.714844-2.472656 10.480469 0 12.976562 10.558593 23.53125 23.535156 23.53125 12.972656 0 23.53125-10.558594 23.53125-23.53125 0-12.976563-10.558594-23.53125-23.53125-23.53125-3.765625 0-7.324219.890625-10.484375 2.46875-.082031-.089844-.160157-.183594-.246094-.273438l-48.097656-48.097656c-.085938-.085937-.183594-.164063-.273438-.246094 1.578125-3.160156 2.472657-6.71875 2.472657-10.484375 0-12.972656-10.558594-23.53125-23.535157-23.53125-12.972656 0-23.53125 10.558594-23.53125 23.53125 0 12.976563 10.558594 23.535156 23.53125 23.535156 3.765625 0 7.324219-.894531 10.484375-2.472656.082032.089844.15625.1875.246094.273438zm21.335938 2.199219c4.703125 0 8.53125 3.828125 8.53125 8.53125s-3.828125 8.53125-8.53125 8.53125c-4.707032 0-8.535156-3.828125-8.535156-8.53125 0-4.707031 3.828124-8.53125 8.535156-8.53125zm-80.164063-63.097657c-4.703125 0-8.53125-3.828124-8.53125-8.53125 0-4.707031 3.828125-8.535156 8.53125-8.535156s8.53125 3.828125 8.53125 8.535156c0 4.703126-3.824219 8.53125-8.53125 8.53125zm0 0"/><path d="m456.402344 32.0625h-176.355469c-12.976563 0-23.53125 10.558594-23.53125 23.535156v80.160156c0 4.144532 3.359375 7.5 7.5 7.5s7.5-3.355468 7.5-7.5v-80.160156c0-4.707031 3.828125-8.53125 8.53125-8.53125h176.355469c4.707031 0 8.53125 3.828125 8.53125 8.53125v176.355469c0 4.703125-3.828125 8.53125-8.53125 8.53125h-80.164063c-4.140625 0-7.5 3.359375-7.5 7.5s3.359375 7.5 7.5 7.5h80.164063c12.976562 0 23.53125-10.558594 23.53125-23.53125v-176.355469c.003906-12.976562-10.554688-23.535156-23.53125-23.535156zm0 0"/><path d="m213.472656 309.132812c3.152344 1.574219 6.707032 2.464844 10.460938 2.464844 12.976562 0 23.535156-10.558594 23.535156-23.53125 0-12.976562-10.558594-23.535156-23.535156-23.535156-12.972656 0-23.53125 10.558594-23.53125 23.535156 0 3.753906.890625 7.308594 2.464844 10.460938l-19.011719 19.011718-19.011719-19.011718c1.574219-3.152344 2.464844-6.707032 2.464844-10.460938 0-12.976562-10.558594-23.535156-23.535156-23.535156-12.972657 0-23.53125 10.558594-23.53125 23.535156 0 12.972656 10.558593 23.53125 23.53125 23.53125 3.757812 0 7.3125-.890625 10.464843-2.460937l19.011719 19.007812-19.011719 19.011719c-3.152343-1.570312-6.707031-2.460938-10.464843-2.460938-12.972657 0-23.53125 10.554688-23.53125 23.53125 0 12.972657 10.558593 23.53125 23.53125 23.53125 12.976562 0 23.535156-10.558593 23.535156-23.53125 0-3.757812-.890625-7.308593-2.464844-10.464843l19.011719-19.007813 19.011719 19.007813c-1.574219 3.15625-2.464844 6.707031-2.464844 10.464843 0 12.976563 10.558594 23.53125 23.53125 23.53125 12.976562 0 23.535156-10.558593 23.535156-23.53125 0-12.976562-10.558594-23.53125-23.535156-23.53125-3.753906 0-7.308594.890626-10.460938 2.460938l-19.011718-19.011719zm10.464844-29.601562c4.703125 0 8.53125 3.828125 8.53125 8.53125 0 4.707031-3.828125 8.535156-8.53125 8.535156-4.707031 0-8.535156-3.828125-8.535156-8.535156 0-4.703125 3.828125-8.53125 8.535156-8.53125zm-88.695312 8.53125c0-4.703125 3.828124-8.53125 8.53125-8.53125 4.707031 0 8.535156 3.828125 8.535156 8.53125 0 4.707031-3.828125 8.535156-8.535156 8.535156-4.703126 0-8.53125-3.828125-8.53125-8.535156zm8.53125 88.695312c-4.703126 0-8.53125-3.828124-8.53125-8.53125 0-4.703124 3.828124-8.53125 8.53125-8.53125 4.707031 0 8.53125 3.828126 8.53125 8.53125 0 4.703126-3.824219 8.53125-8.53125 8.53125zm88.695312-8.53125c0 4.703126-3.828125 8.53125-8.53125 8.53125-4.707031 0-8.535156-3.828124-8.535156-8.53125 0-4.703124 3.828125-8.53125 8.535156-8.53125 4.703125 0 8.53125 3.824219 8.53125 8.53125zm0 0"/></svg>