<svg id="Capa_1" enable-background="new 0 0 512 512" height="40" viewBox="0 0 512 512" width="40" xmlns="http://www.w3.org/2000/svg"><g><path d="m256 0c-141.385 0-256 114.615-256 256s114.615 256 256 256 256-114.615 256-256-114.615-256-256-256zm0 460.267c-112.633 0-204.267-91.634-204.267-204.267s91.634-204.267 204.267-204.267 204.267 91.634 204.267 204.267-91.634 204.267-204.267 204.267z"/><path d="m256 81.733c-96.091 0-174.267 78.176-174.267 174.267s78.176 174.267 174.267 174.267 174.267-78.176 174.267-174.267-78.176-174.267-174.267-174.267zm54.457 207.511c2.936-.892 6.05-1.377 9.278-1.377 17.6 0 31.867 14.268 31.867 31.867 0 17.6-14.267 31.867-31.867 31.867s-31.867-14.267-31.867-31.867c0-3.228.484-6.342 1.376-9.278l-33.244-33.243-33.244 33.244c.892 2.936 1.376 6.05 1.376 9.278 0 17.6-14.267 31.867-31.867 31.867s-31.867-14.267-31.867-31.867 14.268-31.867 31.867-31.867c3.228 0 6.342.484 9.278 1.377l33.244-33.245-33.244-33.244c-2.936.892-6.05 1.376-9.278 1.376-17.6 0-31.867-14.268-31.867-31.867 0-17.6 14.268-31.867 31.867-31.867s31.867 14.268 31.867 31.867c0 3.228-.484 6.342-1.376 9.278l33.244 33.244 33.244-33.244c-.892-2.936-1.376-6.05-1.376-9.278 0-17.6 14.268-31.867 31.867-31.867s31.867 14.268 31.867 31.867c0 17.6-14.267 31.867-31.867 31.867-3.228 0-6.342-.484-9.278-1.376l-33.244 33.244z"/></g></svg>