<svg width="88" height="88" viewBox="0 0 88 88" fill="none" xmlns="http://www.w3.org/2000/svg">
<g filter="url(#filter0_d_86_27)">
<rect x="4" width="80" height="80" rx="40" fill="#4C4C4C" shape-rendering="crispEdges"/>
<rect x="5" y="1" width="78" height="78" rx="39" stroke="white" stroke-width="2" shape-rendering="crispEdges"/>
<g clip-path="url(#clip0_86_27)">
<path d="M57.5898 40.1641C59.7812 40.1641 61.668 38.1953 61.668 35.6523C61.668 33.1328 59.7695 31.2695 57.5898 31.2695C55.4102 31.2695 53.5 33.1797 53.5 35.6758C53.5 38.1953 55.4102 40.1641 57.5898 40.1641ZM51.0625 50.7461H64.1055C65.5938 50.7461 66.168 50.1602 66.168 49.1055C66.168 45.8594 62.875 41.957 57.5898 41.957C52.293 41.957 49 45.8594 49 49.1055C49 50.1602 49.5742 50.7461 51.0625 50.7461Z" fill="yellow"/>
<path d="M30.5898 40.1641C32.7812 40.1641 34.668 38.1953 34.668 35.6523C34.668 33.1328 32.7695 31.2695 30.5898 31.2695C28.4219 31.2695 26.5117 33.1797 26.5117 35.6758C26.5117 38.1953 28.4102 40.1641 30.5898 40.1641ZM24.0625 50.7461H37.1172C38.6055 50.7461 39.1797 50.1602 39.1797 49.1055C39.1797 45.8594 35.875 41.957 30.5898 41.957C25.3047 41.957 22 45.8594 22 49.1055C22 50.1602 22.5742 50.7461 24.0625 50.7461Z" fill="white"/>
<path d="M36.2266 52.3398H51.9531C54.2266 52.3398 55.5508 50.9453 55.5508 49.1875C55.5508 45.25 51.0391 40.3984 44.0898 40.3984C37.1523 40.3984 32.6289 45.25 32.6289 49.1875C32.6289 50.9453 33.9648 52.3398 36.2266 52.3398Z" fill="#4C4C4C"/>
<path d="M44.1016 39.8945C46.6094 39.8945 48.7891 37.6445 48.7891 34.7148C48.7891 31.8203 46.6094 29.6758 44.1016 29.6758C41.5938 29.6758 39.4141 31.8672 39.4141 34.7383C39.4141 37.6445 41.582 39.8945 44.1016 39.8945ZM36.2266 50.7461H51.9531C53.207 50.7461 53.957 50.1602 53.957 49.1875C53.957 46.1641 50.1719 41.9922 44.0898 41.9922C38.0195 41.9922 34.2344 46.1641 34.2344 49.1875C34.2344 50.1602 34.9844 50.7461 36.2266 50.7461Z" fill="#FF2D55"/>
</g>
</g>
<defs>
<filter id="filter0_d_86_27" x="0" y="0" width="88" height="88" filterUnits="userSpaceOnUse" color-interpolation-filters="sRGB">
<feFlood flood-opacity="0" result="BackgroundImageFix"/>
<feColorMatrix in="SourceAlpha" type="matrix" values="0 0 0 0 0 0 0 0 0 0 0 0 0 0 0 0 0 0 127 0" result="hardAlpha"/>
<feOffset dy="4"/>
<feGaussianBlur stdDeviation="2"/>
<feComposite in2="hardAlpha" operator="out"/>
<feColorMatrix type="matrix" values="0 0 0 0 0 0 0 0 0 0 0 0 0 0 0 0 0 0 0.1 0"/>
<feBlend mode="normal" in2="BackgroundImageFix" result="effect1_dropShadow_86_27"/>
<feBlend mode="normal" in="SourceGraphic" in2="effect1_dropShadow_86_27" result="shape"/>
</filter>
<clipPath id="clip0_86_27">
<rect width="44.168" height="24.3398" fill="#FF2D55" transform="translate(22 28)"/>
</clipPath>
</defs>
</svg>
