<svg width="88" height="88" viewBox="0 0 88 88" fill="none" xmlns="http://www.w3.org/2000/svg">
<g filter="url(#filter0_d_86_363)">
<rect x="4" width="80" height="80" rx="40" fill="#FFD700" shape-rendering="crispEdges"/>
<rect x="4.5" y="0.5" width="79" height="79" rx="39.5" stroke="#FFD700" shape-rendering="crispEdges"/>
<g clip-path="url(#clip0_86_363)">
<path d="M28.1964 57.5886C27.5045 57.1263 27.2541 55.7493 27.2541 54.8986V35.5701C27.2487 34.7193 27.9937 34.029 28.8453 34.029H30.3848C31.2362 34.029 31.9158 33.3371 32.0146 32.4917C32.7204 26.4352 37.5771 22 43.8818 22C50.1849 22 55.1866 26.4361 55.9154 32.4917C56.0172 33.3371 56.6968 34.0252 57.5482 34.0198L59.1764 34.0097C60.0271 34.0043 60.7183 34.6909 60.7197 35.5416L60.7459 54.934C60.7459 57.7565 58.1215 58 58.1215 58H29.6235C29.0163 58.0009 28.5493 57.8236 28.1964 57.5886ZM41.6811 51.6168C41.4407 52.4335 41.9238 53.0862 42.7752 53.0793L45.4567 53.0593C46.3074 53.0523 46.8352 52.3766 46.6411 51.5482C46.2118 49.7128 45.5669 46.8386 45.7256 46.7785C47.3946 46.1404 48.5835 44.9708 48.5835 43.0753C48.5835 40.6196 46.5932 38.63 44.1389 38.63C41.6824 38.63 39.6921 40.6203 39.6921 43.0753C39.6921 45.0293 40.955 46.2338 42.7049 46.8294C43.0095 46.9349 42.2173 49.799 41.6811 51.6168ZM34.6336 32.4664C34.4996 33.307 35.203 34.0014 36.0537 34.0014H52.3801C53.2308 34.0014 53.9343 33.307 53.8002 32.4664C53.0635 27.8515 49.052 24.4095 44.2114 24.4095C39.3778 24.4095 35.3694 27.8508 34.6336 32.4664Z" fill="white"/>
</g>
</g>
<defs>
<filter id="filter0_d_86_363" x="0" y="0" width="88" height="88" filterUnits="userSpaceOnUse" color-interpolation-filters="sRGB">
<feFlood flood-opacity="0" result="BackgroundImageFix"/>
<feColorMatrix in="SourceAlpha" type="matrix" values="0 0 0 0 0 0 0 0 0 0 0 0 0 0 0 0 0 0 127 0" result="hardAlpha"/>
<feOffset dy="4"/>
<feGaussianBlur stdDeviation="2"/>
<feComposite in2="hardAlpha" operator="out"/>
<feColorMatrix type="matrix" values="0 0 0 0 0.478431 0 0 0 0 0.996078 0 0 0 0 0.996078 0 0 0 0.1 0"/>
<feBlend mode="normal" in2="BackgroundImageFix" result="effect1_dropShadow_86_363"/>
<feBlend mode="normal" in="SourceGraphic" in2="effect1_dropShadow_86_363" result="shape"/>
</filter>
<clipPath id="clip0_86_363">
<rect width="36" height="36" fill="white" transform="translate(26 22)"/>
</clipPath>
</defs>
</svg>
