<svg width="271" height="52" viewBox="0 0 271 52" fill="none" xmlns="http://www.w3.org/2000/svg">
<g clip-path="url(#clip0_1_16)">
<path d="M141.672 0.727052H100.991C99.7767 0.726317 98.6121 1.21247 97.7526 2.07871C96.8931 2.94496 96.4092 4.12045 96.407 5.34697V46.4504C96.4077 47.6769 96.8903 48.853 97.7487 49.7203C98.6071 50.5876 99.7712 51.0751 100.985 51.0758H141.672C142.885 51.0744 144.048 50.5863 144.905 49.719C145.762 48.8516 146.243 47.6759 146.242 46.4504V5.3525C146.243 4.12697 145.762 2.9513 144.905 2.08394C144.048 1.21658 142.885 0.728518 141.672 0.727052ZM104.622 26.0342C104.622 24.897 105.069 23.8064 105.865 23.0022C106.661 22.1981 107.74 21.7463 108.866 21.7463H126.664C127.79 21.7463 128.869 22.1981 129.665 23.0022C130.461 23.8064 130.908 24.897 130.908 26.0342C130.908 27.1715 130.461 28.2621 129.665 29.0663C128.869 29.8704 127.79 30.3222 126.664 30.3222H108.866C107.74 30.3222 106.661 29.8704 105.865 29.0663C105.069 28.2621 104.622 27.1715 104.622 26.0342ZM136.237 43.7393C135.842 44.1392 135.372 44.456 134.855 44.6716C134.338 44.8872 133.784 44.9972 133.225 44.9953H115.426C114.301 44.9953 113.221 44.5435 112.425 43.7394C111.629 42.9352 111.182 41.8446 111.182 40.7073C111.182 39.5701 111.629 38.4794 112.425 37.6753C113.221 36.8711 114.301 36.4194 115.426 36.4194H133.225C134.065 36.4172 134.887 36.6671 135.587 37.1374C136.286 37.6077 136.832 38.2773 137.155 39.0613C137.477 39.8452 137.562 40.7083 137.399 41.5411C137.235 42.3739 136.831 43.139 136.237 43.7393ZM136.237 14.4153C135.842 14.8152 135.372 15.132 134.855 15.3476C134.338 15.5631 133.784 15.6731 133.225 15.6712H115.426C114.301 15.6712 113.221 15.2195 112.425 14.4153C111.629 13.6112 111.182 12.5205 111.182 11.3833C111.182 10.2461 111.629 9.1554 112.425 8.35125C113.221 7.54711 114.301 7.09535 115.426 7.09535H133.225C134.065 7.09317 134.887 7.34308 135.587 7.8134C136.286 8.28373 136.832 8.95329 137.155 9.73726C137.477 10.5212 137.562 11.3843 137.399 12.2171C137.235 13.0499 136.831 13.8149 136.237 14.4153Z" fill="white"/>
<path d="M8.55346 4.87667V46.9262C8.55346 48.0268 8.12043 49.0822 7.34964 49.8604C6.57885 50.6387 5.53342 51.0758 4.44336 51.0758C3.35329 51.0758 2.30787 50.6387 1.53707 49.8604C0.766281 49.0822 0.333252 48.0268 0.333252 46.9262V4.87667C0.333252 3.77612 0.766281 2.72065 1.53707 1.94245C2.30787 1.16424 3.35329 0.727051 4.44336 0.727051C5.53342 0.727051 6.57885 1.16424 7.34964 1.94245C8.12043 2.72065 8.55346 3.77612 8.55346 4.87667Z" fill="white"/>
<path d="M72.8797 50.0831C72.4691 50.4364 71.9935 50.7047 71.4799 50.8729C70.9663 51.041 70.4248 51.1057 69.8864 51.0632C69.3479 51.0206 68.8231 50.8717 68.3419 50.6249C67.8606 50.3782 67.4324 50.0384 67.0816 49.625L38.8694 16.387V46.8181C38.8694 47.9161 38.4362 48.9691 37.665 49.7455C36.8938 50.5219 35.8479 50.958 34.7573 50.958C33.6667 50.958 32.6207 50.5219 31.8496 49.7455C31.0784 48.9691 30.6451 47.9161 30.6451 46.8181V4.86696C30.6451 3.97121 30.9337 3.09962 31.4676 2.38302C31.4734 2.37111 31.4818 2.36072 31.4922 2.35266C31.6379 2.17797 31.7974 2.01552 31.9693 1.86691C32.38 1.51282 32.856 1.24375 33.3701 1.07512C33.8843 0.906482 34.4264 0.841582 34.9655 0.884138C35.5045 0.926694 36.03 1.07587 36.5117 1.32312C36.9934 1.57037 37.422 1.91085 37.7729 2.32506L38.5569 3.24688L66.0097 35.6348V4.86696C66.0097 3.76899 66.4429 2.71599 67.2141 1.9396C67.9853 1.16322 69.0312 0.727051 70.1218 0.727051C71.2124 0.727051 72.2584 1.16322 73.0295 1.9396C73.8007 2.71599 74.234 3.76899 74.234 4.86696V46.1226C74.3784 46.8444 74.3291 47.5919 74.0911 48.288C73.853 48.9842 73.4349 49.6039 72.8797 50.0831Z" fill="white"/>
<path d="M269.346 7.13431L253.319 30.7693V46.4659C253.319 47.5523 252.892 48.5942 252.132 49.3623C251.373 50.1305 250.342 50.5621 249.268 50.5621C248.194 50.5621 247.163 50.1305 246.404 49.3623C245.644 48.5942 245.217 47.5523 245.217 46.4659V30.4962L229.67 7.55758C229.061 6.66132 228.83 5.55722 229.026 4.48816C229.222 3.41911 229.83 2.47267 230.717 1.85706C231.603 1.24144 232.695 1.00708 233.752 1.20553C234.809 1.40398 235.745 2.01898 236.354 2.91524L249.371 22.1236L262.663 2.50562C262.964 2.06184 263.349 1.68244 263.795 1.38908C264.242 1.09573 264.741 0.894173 265.265 0.795912C265.788 0.69765 266.326 0.704611 266.846 0.8164C267.367 0.928189 267.861 1.14262 268.3 1.44744C268.739 1.75226 269.114 2.1415 269.404 2.59295C269.694 3.04439 269.894 3.5492 269.991 4.07854C270.088 4.60789 270.081 5.1514 269.97 5.67806C269.86 6.20471 269.648 6.70418 269.346 7.14796V7.13431Z" fill="white"/>
<path d="M200.826 31.7702C201.582 31.3515 202.306 30.8754 202.991 30.346C205.389 28.5066 207.246 26.0398 208.362 23.2111C209.819 19.4556 209.791 15.2757 208.283 11.5409C207.529 9.68822 206.448 7.99016 205.094 6.52987C203.715 5.04701 202.094 3.81669 200.302 2.89329C199.087 2.25889 197.804 1.76626 196.479 1.42483C195.031 1.07582 193.554 0.869297 192.067 0.808135C190.677 0.733468 189.284 0.733469 187.925 0.727938C186.565 0.722408 185.273 0.744531 183.946 0.744531H172.429C171.343 0.744531 170.301 1.18157 169.533 1.9595C168.765 2.73744 168.334 3.79255 168.334 4.89271V46.9277C168.334 48.0278 168.765 49.0829 169.533 49.8609C170.301 50.6388 171.343 51.0758 172.429 51.0758C173.516 51.0758 174.557 50.6388 175.325 49.8609C176.094 49.0829 176.525 48.0278 176.525 46.9277V34.2066C181.713 34.2066 186.925 34.1513 192.127 34.0876C192.3 34.0704 192.475 34.102 192.632 34.1789C192.749 34.2703 192.843 34.3889 192.905 34.5246C194.609 37.4477 196.395 40.3072 198.161 43.1915L201.711 48.999C202.283 49.9341 203.199 50.6007 204.257 50.8519C205.314 51.1032 206.427 50.9186 207.35 50.3389C208.274 49.7591 208.932 48.8315 209.18 47.7603C209.428 46.6891 209.246 45.562 208.673 44.6268L200.826 31.7702ZM195.502 25.4401C194.821 25.6606 194.12 25.8143 193.41 25.8991C193.074 25.9434 192.738 25.9738 192.403 25.9959C191.218 26.0706 190.027 26.0291 188.853 25.9959C184.872 25.8881 180.894 25.9102 176.91 25.9102H176.525V9.0409C180.916 9.0409 185.309 8.92752 189.699 8.99112C192.053 9.02707 194.429 8.99113 196.608 10.042C197.988 10.7183 199.155 11.7724 199.975 13.0851C200.795 14.3977 201.237 15.9166 201.249 17.47C201.226 19.2363 200.662 20.9518 199.635 22.3795C198.608 23.8072 197.168 24.8766 195.515 25.4401H195.502Z" fill="white"/>
</g>
<defs>
<clipPath id="clip0_1_16">
<rect width="271" height="52" fill="white"/>
</clipPath>
</defs>
</svg>
