<svg width="88" height="88" viewBox="0 0 88 88" fill="none" xmlns="http://www.w3.org/2000/svg">
<g filter="url(#filter0_d_86_52)">
<rect x="4" width="80" height="80" rx="40" fill="#4C4C4C" shape-rendering="crispEdges"/>
<path d="M41 31C41.0005 28.8937 41.5554 26.8246 42.6089 25.0006C43.6624 23.1767 45.1774 21.6622 47.0018 20.6094C48.8261 19.5565 50.8954 19.0024 53.0017 19.0027C55.108 19.003 57.1772 19.5577 59.0012 20.6111C60.8252 21.6644 62.3398 23.1793 63.3928 25.0036C64.4458 26.8278 65.0001 28.897 65 31.0034C64.9999 33.1097 64.4454 35.1789 63.3921 37.003C62.3389 38.8271 60.8241 40.3418 59 41.395V46.879L61.562 49.438C61.7017 49.5773 61.8125 49.7429 61.8881 49.9251C61.9638 50.1073 62.0027 50.3027 62.0027 50.5C62.0027 50.6973 61.9638 50.8927 61.8881 51.0749C61.8125 51.2571 61.7017 51.4227 61.562 51.562L59.621 53.5L61.562 55.438C61.7141 55.5901 61.8318 55.7731 61.9069 55.9746C61.9821 56.1761 62.0131 56.3915 61.9977 56.606C61.9823 56.8205 61.921 57.0293 61.8179 57.218C61.7148 57.4068 61.5722 57.5712 61.4 57.7L55.4 62.2C55.1404 62.3947 54.8246 62.5 54.5 62.5C54.1754 62.5 53.8596 62.3947 53.6 62.2L47.6 57.7C47.4137 57.5603 47.2625 57.3791 47.1584 57.1708C47.0542 56.9625 47 56.7329 47 56.5V41.395C45.175 40.342 43.6595 38.8268 42.6062 37.002C41.5529 35.1771 40.9989 33.107 41 31ZM55.25 28C55.25 27.4033 55.0129 26.831 54.591 26.409C54.169 25.987 53.5967 25.75 53 25.75C52.4033 25.75 51.831 25.987 51.409 26.409C50.9871 26.831 50.75 27.4033 50.75 28C50.75 28.5967 50.9871 29.169 51.409 29.591C51.831 30.0129 52.4033 30.25 53 30.25C53.5967 30.25 54.169 30.0129 54.591 29.591C55.0129 29.169 55.25 28.5967 55.25 28Z" fill="#FFD700"/>
<path d="M43.88 19.0899C42.2155 18.8689 40.5223 19.0502 38.9424 19.6188C37.3624 20.1874 35.9419 21.1265 34.8 22.3575C33.658 23.5885 32.8279 25.0754 32.3794 26.6935C31.9308 28.3116 31.8768 30.0137 32.222 31.6569L23.438 40.4379C23.2988 40.5775 23.1885 40.7431 23.1133 40.9253C23.0382 41.1076 22.9997 41.3028 23 41.4999V50.4999C23 50.8977 23.158 51.2793 23.4393 51.5606C23.7206 51.8419 24.1022 51.9999 24.5 51.9999H30.5C30.8978 51.9999 31.2794 51.8419 31.5607 51.5606C31.842 51.2793 32 50.8977 32 50.4999V47.4999H36.5C36.8978 47.4999 37.2794 47.3419 37.5607 47.0606C37.842 46.7793 38 46.3977 38 45.9999V42.1209L40.631 39.4899C38.9125 36.9926 37.9948 34.0314 38 30.9999C37.9976 28.6961 38.5269 26.4228 39.5468 24.3571C40.5667 22.2913 42.0495 20.4888 43.88 19.0899Z" fill="#FF2D55"/>
</g>
<defs>
<filter id="filter0_d_86_52" x="0" y="0" width="88" height="88" filterUnits="userSpaceOnUse" color-interpolation-filters="sRGB">
<feFlood flood-opacity="0" result="BackgroundImageFix"/>
<feColorMatrix in="SourceAlpha" type="matrix" values="0 0 0 0 0 0 0 0 0 0 0 0 0 0 0 0 0 0 127 0" result="hardAlpha"/>
<feOffset dy="4"/>
<feGaussianBlur stdDeviation="2"/>
<feComposite in2="hardAlpha" operator="out"/>
<feColorMatrix type="matrix" values="0 0 0 0 0 0 0 0 0 0 0 0 0 0 0 0 0 0 0.1 0"/>
<feBlend mode="normal" in2="BackgroundImageFix" result="effect1_dropShadow_86_52"/>
<feBlend mode="normal" in="SourceGraphic" in2="effect1_dropShadow_86_52" result="shape"/>
</filter>
</defs>
</svg>
