<svg width="271" height="93" viewBox="0 0 271 93" fill="none" xmlns="http://www.w3.org/2000/svg">
<g clip-path="url(#clip0_67_535)">
<path d="M141.672 0.727052H100.991C99.7767 0.726317 98.6121 1.21247 97.7526 2.07871C96.8931 2.94496 96.4092 4.12045 96.407 5.34697V46.4504C96.4077 47.6769 96.8903 48.853 97.7487 49.7203C98.6071 50.5876 99.7712 51.0751 100.985 51.0758H141.672C142.885 51.0744 144.048 50.5863 144.905 49.719C145.762 48.8516 146.243 47.6759 146.242 46.4504V5.3525C146.243 4.12697 145.762 2.9513 144.905 2.08394C144.048 1.21658 142.885 0.728518 141.672 0.727052ZM104.622 26.0342C104.622 24.897 105.069 23.8064 105.865 23.0022C106.661 22.1981 107.74 21.7463 108.866 21.7463H126.664C127.79 21.7463 128.869 22.1981 129.665 23.0022C130.461 23.8064 130.908 24.897 130.908 26.0342C130.908 27.1715 130.461 28.2621 129.665 29.0663C128.869 29.8704 127.79 30.3222 126.664 30.3222H108.866C107.74 30.3222 106.661 29.8704 105.865 29.0663C105.069 28.2621 104.622 27.1715 104.622 26.0342ZM136.237 43.7393C135.842 44.1392 135.372 44.456 134.855 44.6716C134.338 44.8872 133.784 44.9972 133.225 44.9953H115.426C114.301 44.9953 113.221 44.5435 112.425 43.7394C111.629 42.9352 111.182 41.8446 111.182 40.7073C111.182 39.5701 111.629 38.4794 112.425 37.6753C113.221 36.8711 114.301 36.4194 115.426 36.4194H133.225C134.065 36.4172 134.887 36.6671 135.587 37.1374C136.286 37.6077 136.832 38.2773 137.155 39.0613C137.477 39.8452 137.562 40.7083 137.399 41.5411C137.235 42.3739 136.831 43.139 136.237 43.7393ZM136.237 14.4153C135.842 14.8152 135.372 15.132 134.855 15.3476C134.338 15.5631 133.784 15.6731 133.225 15.6712H115.426C114.301 15.6712 113.221 15.2195 112.425 14.4153C111.629 13.6112 111.182 12.5205 111.182 11.3833C111.182 10.2461 111.629 9.1554 112.425 8.35125C113.221 7.54711 114.301 7.09535 115.426 7.09535H133.225C134.065 7.09317 134.887 7.34308 135.587 7.8134C136.286 8.28373 136.832 8.95329 137.155 9.73726C137.477 10.5212 137.562 11.3843 137.399 12.2171C137.235 13.0499 136.831 13.8149 136.237 14.4153Z" fill="#7AFEFE"/>
<path d="M8.55346 4.87667V46.9262C8.55346 48.0268 8.12043 49.0822 7.34964 49.8604C6.57885 50.6387 5.53342 51.0758 4.44336 51.0758C3.35329 51.0758 2.30787 50.6387 1.53707 49.8604C0.766281 49.0822 0.333252 48.0268 0.333252 46.9262V4.87667C0.333252 3.77612 0.766281 2.72065 1.53707 1.94245C2.30787 1.16424 3.35329 0.727051 4.44336 0.727051C5.53342 0.727051 6.57885 1.16424 7.34964 1.94245C8.12043 2.72065 8.55346 3.77612 8.55346 4.87667Z" fill="white"/>
<path d="M72.8797 50.0831C72.4691 50.4364 71.9935 50.7047 71.4799 50.8729C70.9663 51.041 70.4248 51.1057 69.8864 51.0632C69.3479 51.0206 68.8231 50.8717 68.3419 50.6249C67.8606 50.3782 67.4324 50.0384 67.0816 49.625L38.8694 16.387V46.8181C38.8694 47.9161 38.4362 48.9691 37.665 49.7455C36.8938 50.5219 35.8479 50.958 34.7573 50.958C33.6667 50.958 32.6207 50.5219 31.8496 49.7455C31.0784 48.9691 30.6451 47.9161 30.6451 46.8181V4.86696C30.6451 3.97121 30.9337 3.09962 31.4676 2.38302C31.4734 2.37111 31.4818 2.36072 31.4922 2.35266C31.6379 2.17797 31.7974 2.01552 31.9693 1.86691C32.38 1.51282 32.856 1.24375 33.3701 1.07512C33.8843 0.906482 34.4264 0.841582 34.9655 0.884138C35.5045 0.926694 36.03 1.07587 36.5117 1.32312C36.9934 1.57037 37.422 1.91085 37.7729 2.32506L38.5569 3.24688L66.0097 35.6348V4.86696C66.0097 3.76899 66.4429 2.71599 67.2141 1.9396C67.9853 1.16322 69.0312 0.727051 70.1218 0.727051C71.2124 0.727051 72.2584 1.16322 73.0295 1.9396C73.8007 2.71599 74.234 3.76899 74.234 4.86696V46.1226C74.3784 46.8444 74.3291 47.5919 74.0911 48.288C73.853 48.9842 73.4349 49.6039 72.8797 50.0831Z" fill="white"/>
<path d="M269.346 7.13431L253.319 30.7693V46.4659C253.319 47.5523 252.892 48.5942 252.132 49.3623C251.373 50.1305 250.342 50.5621 249.268 50.5621C248.194 50.5621 247.163 50.1305 246.404 49.3623C245.644 48.5942 245.217 47.5523 245.217 46.4659V30.4962L229.67 7.55758C229.061 6.66132 228.83 5.55722 229.026 4.48816C229.222 3.41911 229.83 2.47267 230.717 1.85706C231.603 1.24144 232.695 1.00708 233.752 1.20553C234.809 1.40398 235.745 2.01898 236.354 2.91524L249.371 22.1236L262.663 2.50562C262.964 2.06184 263.349 1.68244 263.795 1.38908C264.242 1.09573 264.741 0.894173 265.265 0.795912C265.788 0.69765 266.326 0.704611 266.846 0.8164C267.367 0.928189 267.861 1.14262 268.3 1.44744C268.739 1.75226 269.114 2.1415 269.404 2.59295C269.694 3.04439 269.894 3.5492 269.991 4.07854C270.088 4.60789 270.081 5.1514 269.97 5.67806C269.86 6.20471 269.648 6.70418 269.346 7.14796V7.13431Z" fill="white"/>
<path d="M200.826 31.7702C201.582 31.3515 202.306 30.8754 202.991 30.346C205.389 28.5066 207.246 26.0398 208.362 23.2111C209.819 19.4556 209.791 15.2757 208.283 11.5409C207.529 9.68822 206.448 7.99016 205.094 6.52987C203.715 5.04701 202.094 3.81669 200.302 2.89329C199.087 2.25889 197.804 1.76626 196.479 1.42483C195.031 1.07582 193.554 0.869297 192.067 0.808135C190.677 0.733468 189.284 0.733469 187.925 0.727938C186.565 0.722408 185.273 0.744531 183.946 0.744531H172.429C171.343 0.744531 170.301 1.18157 169.533 1.9595C168.765 2.73744 168.334 3.79255 168.334 4.89271V46.9277C168.334 48.0278 168.765 49.0829 169.533 49.8609C170.301 50.6388 171.343 51.0758 172.429 51.0758C173.516 51.0758 174.557 50.6388 175.325 49.8609C176.094 49.0829 176.525 48.0278 176.525 46.9277V34.2066C181.713 34.2066 186.925 34.1513 192.127 34.0876C192.3 34.0704 192.475 34.102 192.632 34.1789C192.749 34.2703 192.843 34.3889 192.905 34.5246C194.609 37.4477 196.395 40.3072 198.161 43.1915L201.711 48.999C202.283 49.9341 203.199 50.6007 204.257 50.8519C205.314 51.1032 206.427 50.9186 207.35 50.3389C208.274 49.7591 208.932 48.8315 209.18 47.7603C209.428 46.6891 209.246 45.562 208.673 44.6268L200.826 31.7702ZM195.502 25.4401C194.821 25.6606 194.12 25.8143 193.41 25.8991C193.074 25.9434 192.738 25.9738 192.403 25.9959C191.218 26.0706 190.027 26.0291 188.853 25.9959C184.872 25.8881 180.894 25.9102 176.91 25.9102H176.525V9.0409C180.916 9.0409 185.309 8.92752 189.699 8.99112C192.053 9.02707 194.429 8.99113 196.608 10.042C197.988 10.7183 199.155 11.7724 199.975 13.0851C200.795 14.3977 201.237 15.9166 201.249 17.47C201.226 19.2363 200.662 20.9518 199.635 22.3795C198.608 23.8072 197.168 24.8766 195.515 25.4401H195.502Z" fill="white"/>
</g>
<path d="M10.728 87.12C9.416 87.12 8.264 86.848 7.272 86.304C6.28 85.744 5.504 84.984 4.944 84.024C4.384 83.048 4.104 81.936 4.104 80.688C4.104 79.44 4.368 78.336 4.896 77.376C5.44 76.416 6.176 75.664 7.104 75.12C8.048 74.56 9.104 74.28 10.272 74.28C11.456 74.28 12.504 74.552 13.416 75.096C14.344 75.624 15.072 76.376 15.6 77.352C16.128 78.312 16.392 79.424 16.392 80.688C16.392 80.768 16.384 80.856 16.368 80.952C16.368 81.032 16.368 81.12 16.368 81.216H5.4V79.944H15.456L14.784 80.448C14.784 79.536 14.584 78.728 14.184 78.024C13.8 77.304 13.272 76.744 12.6 76.344C11.928 75.944 11.152 75.744 10.272 75.744C9.408 75.744 8.632 75.944 7.944 76.344C7.256 76.744 6.72 77.304 6.336 78.024C5.952 78.744 5.76 79.568 5.76 80.496V80.76C5.76 81.72 5.968 82.568 6.384 83.304C6.816 84.024 7.408 84.592 8.16 85.008C8.928 85.408 9.8 85.608 10.776 85.608C11.544 85.608 12.256 85.472 12.912 85.2C13.584 84.928 14.16 84.512 14.64 83.952L15.6 85.056C15.04 85.728 14.336 86.24 13.488 86.592C12.656 86.944 11.736 87.12 10.728 87.12ZM26.2924 74.28C27.3164 74.28 28.2124 74.48 28.9804 74.88C29.7644 75.264 30.3724 75.856 30.8044 76.656C31.2524 77.456 31.4764 78.464 31.4764 79.68V87H29.7724V79.848C29.7724 78.52 29.4364 77.52 28.7644 76.848C28.1084 76.16 27.1804 75.816 25.9804 75.816C25.0844 75.816 24.3004 76 23.6284 76.368C22.9724 76.72 22.4604 77.24 22.0924 77.928C21.7404 78.6 21.5644 79.416 21.5644 80.376V87H19.8604V74.4H21.4924V77.856L21.2284 77.208C21.6284 76.296 22.2684 75.584 23.1484 75.072C24.0284 74.544 25.0764 74.28 26.2924 74.28ZM41.3111 87.12C40.0631 87.12 38.9431 86.848 37.9511 86.304C36.9751 85.744 36.2071 84.984 35.6471 84.024C35.0871 83.048 34.8071 81.936 34.8071 80.688C34.8071 79.424 35.0871 78.312 35.6471 77.352C36.2071 76.392 36.9751 75.64 37.9511 75.096C38.9431 74.552 40.0631 74.28 41.3111 74.28C42.3831 74.28 43.3511 74.488 44.2151 74.904C45.0791 75.32 45.7591 75.944 46.2551 76.776L44.9831 77.64C44.5511 77 44.0151 76.528 43.3751 76.224C42.7351 75.92 42.0391 75.768 41.2871 75.768C40.3911 75.768 39.5831 75.976 38.8631 76.392C38.1431 76.792 37.5751 77.36 37.1591 78.096C36.7431 78.832 36.5351 79.696 36.5351 80.688C36.5351 81.68 36.7431 82.544 37.1591 83.28C37.5751 84.016 38.1431 84.592 38.8631 85.008C39.5831 85.408 40.3911 85.608 41.2871 85.608C42.0391 85.608 42.7351 85.456 43.3751 85.152C44.0151 84.848 44.5511 84.384 44.9831 83.76L46.2551 84.624C45.7591 85.44 45.0791 86.064 44.2151 86.496C43.3511 86.912 42.3831 87.12 41.3111 87.12ZM49.6026 87V74.4H51.2346V77.832L51.0666 77.232C51.4186 76.272 52.0106 75.544 52.8426 75.048C53.6746 74.536 54.7066 74.28 55.9386 74.28V75.936C55.8746 75.936 55.8106 75.936 55.7466 75.936C55.6826 75.92 55.6186 75.912 55.5546 75.912C54.2266 75.912 53.1866 76.32 52.4346 77.136C51.6826 77.936 51.3066 79.08 51.3066 80.568V87H49.6026ZM59.6829 91.776C59.0909 91.776 58.5229 91.68 57.9789 91.488C57.4509 91.296 56.9949 91.008 56.6109 90.624L57.4029 89.352C57.7229 89.656 58.0669 89.888 58.4349 90.048C58.8189 90.224 59.2429 90.312 59.7069 90.312C60.2669 90.312 60.7469 90.152 61.1469 89.832C61.5629 89.528 61.9549 88.984 62.3229 88.2L63.1389 86.352L63.3309 86.088L68.5149 74.4H70.1949L63.8829 88.512C63.5309 89.328 63.1389 89.976 62.7069 90.456C62.2909 90.936 61.8349 91.272 61.3389 91.464C60.8429 91.672 60.2909 91.776 59.6829 91.776ZM63.0429 87.36L57.2349 74.4H59.0109L64.1469 85.968L63.0429 87.36ZM79.0988 87.12C78.0108 87.12 77.0268 86.872 76.1468 86.376C75.2668 85.864 74.5628 85.136 74.0348 84.192C73.5228 83.232 73.2668 82.064 73.2668 80.688C73.2668 79.312 73.5228 78.152 74.0348 77.208C74.5468 76.248 75.2428 75.52 76.1228 75.024C77.0028 74.528 77.9948 74.28 79.0988 74.28C80.2988 74.28 81.3708 74.552 82.3148 75.096C83.2748 75.624 84.0268 76.376 84.5708 77.352C85.1148 78.312 85.3868 79.424 85.3868 80.688C85.3868 81.968 85.1148 83.088 84.5708 84.048C84.0268 85.008 83.2748 85.76 82.3148 86.304C81.3708 86.848 80.2988 87.12 79.0988 87.12ZM72.5948 91.656V74.4H74.2268V78.192L74.0588 80.712L74.2988 83.256V91.656H72.5948ZM78.9788 85.608C79.8748 85.608 80.6748 85.408 81.3788 85.008C82.0828 84.592 82.6428 84.016 83.0588 83.28C83.4748 82.528 83.6828 81.664 83.6828 80.688C83.6828 79.712 83.4748 78.856 83.0588 78.12C82.6428 77.384 82.0828 76.808 81.3788 76.392C80.6748 75.976 79.8748 75.768 78.9788 75.768C78.0828 75.768 77.2748 75.976 76.5547 76.392C75.8508 76.808 75.2908 77.384 74.8748 78.12C74.4748 78.856 74.2748 79.712 74.2748 80.688C74.2748 81.664 74.4748 82.528 74.8748 83.28C75.2908 84.016 75.8508 84.592 76.5547 85.008C77.2748 85.408 78.0828 85.608 78.9788 85.608ZM92.8444 87.12C91.6604 87.12 90.7484 86.8 90.1084 86.16C89.4684 85.52 89.1484 84.616 89.1484 83.448V71.616H90.8524V83.352C90.8524 84.088 91.0364 84.656 91.4044 85.056C91.7884 85.456 92.3324 85.656 93.0364 85.656C93.7884 85.656 94.4124 85.44 94.9084 85.008L95.5084 86.232C95.1724 86.536 94.7644 86.76 94.2844 86.904C93.8204 87.048 93.3404 87.12 92.8444 87.12ZM86.8924 75.816V74.4H94.6924V75.816H86.8924ZM103.517 87.12C102.205 87.12 101.053 86.848 100.061 86.304C99.0691 85.744 98.2931 84.984 97.7331 84.024C97.1731 83.048 96.8931 81.936 96.8931 80.688C96.8931 79.44 97.1571 78.336 97.6851 77.376C98.2291 76.416 98.9651 75.664 99.8931 75.12C100.837 74.56 101.893 74.28 103.061 74.28C104.245 74.28 105.293 74.552 106.205 75.096C107.133 75.624 107.861 76.376 108.389 77.352C108.917 78.312 109.181 79.424 109.181 80.688C109.181 80.768 109.173 80.856 109.157 80.952C109.157 81.032 109.157 81.12 109.157 81.216H98.1891V79.944H108.245L107.573 80.448C107.573 79.536 107.373 78.728 106.973 78.024C106.589 77.304 106.061 76.744 105.389 76.344C104.717 75.944 103.941 75.744 103.061 75.744C102.197 75.744 101.421 75.944 100.733 76.344C100.045 76.744 99.5091 77.304 99.1251 78.024C98.7411 78.744 98.5491 79.568 98.5491 80.496V80.76C98.5491 81.72 98.7571 82.568 99.1731 83.304C99.6051 84.024 100.197 84.592 100.949 85.008C101.717 85.408 102.589 85.608 103.565 85.608C104.333 85.608 105.045 85.472 105.701 85.2C106.373 84.928 106.949 84.512 107.429 83.952L108.389 85.056C107.829 85.728 107.125 86.24 106.277 86.592C105.445 86.944 104.525 87.12 103.517 87.12ZM117.665 87.12C116.465 87.12 115.385 86.848 114.425 86.304C113.481 85.76 112.737 85.008 112.193 84.048C111.649 83.072 111.377 81.952 111.377 80.688C111.377 79.408 111.649 78.288 112.193 77.328C112.737 76.368 113.481 75.624 114.425 75.096C115.385 74.552 116.465 74.28 117.665 74.28C118.769 74.28 119.753 74.528 120.617 75.024C121.497 75.52 122.193 76.248 122.705 77.208C123.233 78.152 123.497 79.312 123.497 80.688C123.497 82.048 123.241 83.208 122.729 84.168C122.217 85.128 121.521 85.864 120.641 86.376C119.777 86.872 118.785 87.12 117.665 87.12ZM117.785 85.608C118.681 85.608 119.481 85.408 120.185 85.008C120.905 84.592 121.465 84.016 121.865 83.28C122.281 82.528 122.489 81.664 122.489 80.688C122.489 79.696 122.281 78.832 121.865 78.096C121.465 77.36 120.905 76.792 120.185 76.392C119.481 75.976 118.681 75.768 117.785 75.768C116.905 75.768 116.113 75.976 115.409 76.392C114.705 76.792 114.145 77.36 113.729 78.096C113.313 78.832 113.105 79.696 113.105 80.688C113.105 81.664 113.313 82.528 113.729 83.28C114.145 84.016 114.705 84.592 115.409 85.008C116.113 85.408 116.905 85.608 117.785 85.608ZM122.537 87V83.208L122.705 80.664L122.465 78.12V69.192H124.169V87H122.537ZM150.94 74.28C151.964 74.28 152.852 74.48 153.604 74.88C154.372 75.264 154.964 75.856 155.38 76.656C155.812 77.456 156.028 78.464 156.028 79.68V87H154.324V79.848C154.324 78.52 154.004 77.52 153.364 76.848C152.74 76.16 151.852 75.816 150.7 75.816C149.836 75.816 149.084 76 148.444 76.368C147.82 76.72 147.332 77.24 146.98 77.928C146.644 78.6 146.476 79.416 146.476 80.376V87H144.772V79.848C144.772 78.52 144.452 77.52 143.812 76.848C143.172 76.16 142.276 75.816 141.124 75.816C140.276 75.816 139.532 76 138.892 76.368C138.252 76.72 137.756 77.24 137.404 77.928C137.068 78.6 136.9 79.416 136.9 80.376V87H135.196V74.4H136.828V77.808L136.564 77.208C136.948 76.296 137.564 75.584 138.412 75.072C139.276 74.544 140.292 74.28 141.46 74.28C142.692 74.28 143.74 74.592 144.604 75.216C145.468 75.824 146.028 76.744 146.284 77.976L145.612 77.712C145.98 76.688 146.628 75.864 147.556 75.24C148.5 74.6 149.628 74.28 150.94 74.28ZM166.001 87.12C164.689 87.12 163.537 86.848 162.545 86.304C161.553 85.744 160.777 84.984 160.217 84.024C159.657 83.048 159.377 81.936 159.377 80.688C159.377 79.44 159.641 78.336 160.169 77.376C160.713 76.416 161.449 75.664 162.377 75.12C163.321 74.56 164.377 74.28 165.545 74.28C166.729 74.28 167.777 74.552 168.689 75.096C169.617 75.624 170.345 76.376 170.873 77.352C171.401 78.312 171.665 79.424 171.665 80.688C171.665 80.768 171.657 80.856 171.641 80.952C171.641 81.032 171.641 81.12 171.641 81.216H160.673V79.944H170.729L170.057 80.448C170.057 79.536 169.857 78.728 169.457 78.024C169.073 77.304 168.545 76.744 167.873 76.344C167.201 75.944 166.425 75.744 165.545 75.744C164.681 75.744 163.905 75.944 163.217 76.344C162.529 76.744 161.993 77.304 161.609 78.024C161.225 78.744 161.033 79.568 161.033 80.496V80.76C161.033 81.72 161.241 82.568 161.657 83.304C162.089 84.024 162.681 84.592 163.433 85.008C164.201 85.408 165.073 85.608 166.049 85.608C166.817 85.608 167.529 85.472 168.185 85.2C168.857 84.928 169.433 84.512 169.913 83.952L170.873 85.056C170.313 85.728 169.609 86.24 168.761 86.592C167.929 86.944 167.009 87.12 166.001 87.12ZM178.518 87.12C177.478 87.12 176.494 86.976 175.566 86.688C174.638 86.384 173.91 86.008 173.382 85.56L174.15 84.216C174.662 84.6 175.318 84.936 176.118 85.224C176.918 85.496 177.758 85.632 178.638 85.632C179.838 85.632 180.702 85.448 181.23 85.08C181.758 84.696 182.022 84.192 182.022 83.568C182.022 83.104 181.87 82.744 181.566 82.488C181.278 82.216 180.894 82.016 180.414 81.888C179.934 81.744 179.398 81.624 178.806 81.528C178.214 81.432 177.622 81.32 177.03 81.192C176.454 81.064 175.926 80.88 175.446 80.64C174.966 80.384 174.574 80.04 174.27 79.608C173.982 79.176 173.838 78.6 173.838 77.88C173.838 77.192 174.03 76.576 174.414 76.032C174.798 75.488 175.358 75.064 176.094 74.76C176.846 74.44 177.758 74.28 178.83 74.28C179.646 74.28 180.462 74.392 181.278 74.616C182.094 74.824 182.766 75.104 183.294 75.456L182.55 76.824C181.99 76.44 181.39 76.168 180.75 76.008C180.11 75.832 179.47 75.744 178.83 75.744C177.694 75.744 176.854 75.944 176.31 76.344C175.782 76.728 175.518 77.224 175.518 77.832C175.518 78.312 175.662 78.688 175.95 78.96C176.254 79.232 176.646 79.448 177.126 79.608C177.622 79.752 178.158 79.872 178.734 79.968C179.326 80.064 179.91 80.184 180.486 80.328C181.078 80.456 181.614 80.64 182.094 80.88C182.59 81.104 182.982 81.432 183.27 81.864C183.574 82.28 183.726 82.832 183.726 83.52C183.726 84.256 183.518 84.896 183.102 85.44C182.702 85.968 182.11 86.384 181.326 86.688C180.558 86.976 179.622 87.12 178.518 87.12ZM190.237 87.12C189.197 87.12 188.213 86.976 187.285 86.688C186.357 86.384 185.629 86.008 185.101 85.56L185.869 84.216C186.381 84.6 187.037 84.936 187.837 85.224C188.637 85.496 189.477 85.632 190.357 85.632C191.557 85.632 192.421 85.448 192.949 85.08C193.477 84.696 193.741 84.192 193.741 83.568C193.741 83.104 193.589 82.744 193.285 82.488C192.997 82.216 192.613 82.016 192.133 81.888C191.653 81.744 191.117 81.624 190.525 81.528C189.933 81.432 189.341 81.32 188.749 81.192C188.173 81.064 187.645 80.88 187.165 80.64C186.685 80.384 186.293 80.04 185.989 79.608C185.701 79.176 185.557 78.6 185.557 77.88C185.557 77.192 185.749 76.576 186.133 76.032C186.517 75.488 187.077 75.064 187.813 74.76C188.565 74.44 189.477 74.28 190.549 74.28C191.365 74.28 192.181 74.392 192.997 74.616C193.813 74.824 194.485 75.104 195.013 75.456L194.269 76.824C193.709 76.44 193.109 76.168 192.469 76.008C191.829 75.832 191.189 75.744 190.549 75.744C189.413 75.744 188.573 75.944 188.029 76.344C187.501 76.728 187.237 77.224 187.237 77.832C187.237 78.312 187.381 78.688 187.669 78.96C187.973 79.232 188.365 79.448 188.845 79.608C189.341 79.752 189.877 79.872 190.453 79.968C191.045 80.064 191.629 80.184 192.205 80.328C192.797 80.456 193.333 80.64 193.813 80.88C194.309 81.104 194.701 81.432 194.989 81.864C195.293 82.28 195.445 82.832 195.445 83.52C195.445 84.256 195.237 84.896 194.821 85.44C194.421 85.968 193.829 86.384 193.045 86.688C192.277 86.976 191.341 87.12 190.237 87.12ZM203.923 87.12C202.611 87.12 201.459 86.848 200.467 86.304C199.475 85.744 198.699 84.984 198.139 84.024C197.579 83.048 197.299 81.936 197.299 80.688C197.299 79.44 197.563 78.336 198.091 77.376C198.635 76.416 199.371 75.664 200.299 75.12C201.243 74.56 202.299 74.28 203.467 74.28C204.651 74.28 205.699 74.552 206.611 75.096C207.539 75.624 208.267 76.376 208.795 77.352C209.323 78.312 209.587 79.424 209.587 80.688C209.587 80.768 209.579 80.856 209.563 80.952C209.563 81.032 209.563 81.12 209.563 81.216H198.595V79.944H208.651L207.979 80.448C207.979 79.536 207.779 78.728 207.379 78.024C206.995 77.304 206.467 76.744 205.795 76.344C205.123 75.944 204.347 75.744 203.467 75.744C202.603 75.744 201.827 75.944 201.139 76.344C200.451 76.744 199.915 77.304 199.531 78.024C199.147 78.744 198.955 79.568 198.955 80.496V80.76C198.955 81.72 199.163 82.568 199.579 83.304C200.011 84.024 200.603 84.592 201.355 85.008C202.123 85.408 202.995 85.608 203.971 85.608C204.739 85.608 205.451 85.472 206.107 85.2C206.779 84.928 207.355 84.512 207.835 83.952L208.795 85.056C208.235 85.728 207.531 86.24 206.683 86.592C205.851 86.944 204.931 87.12 203.923 87.12ZM219.488 74.28C220.512 74.28 221.408 74.48 222.176 74.88C222.96 75.264 223.568 75.856 224 76.656C224.448 77.456 224.672 78.464 224.672 79.68V87H222.968V79.848C222.968 78.52 222.632 77.52 221.96 76.848C221.304 76.16 220.376 75.816 219.176 75.816C218.28 75.816 217.496 76 216.824 76.368C216.168 76.72 215.656 77.24 215.288 77.928C214.936 78.6 214.76 79.416 214.76 80.376V87H213.056V74.4H214.688V77.856L214.424 77.208C214.824 76.296 215.464 75.584 216.344 75.072C217.224 74.544 218.272 74.28 219.488 74.28ZM234.65 91.776C233.498 91.776 232.394 91.608 231.338 91.272C230.282 90.936 229.426 90.456 228.77 89.832L229.634 88.536C230.226 89.064 230.954 89.48 231.818 89.784C232.698 90.104 233.626 90.264 234.602 90.264C236.202 90.264 237.378 89.888 238.13 89.136C238.882 88.4 239.258 87.248 239.258 85.68V82.536L239.498 80.376L239.33 78.216V74.4H240.962V85.464C240.962 87.64 240.426 89.232 239.354 90.24C238.298 91.264 236.73 91.776 234.65 91.776ZM234.338 86.52C233.138 86.52 232.058 86.264 231.098 85.752C230.138 85.224 229.378 84.496 228.818 83.568C228.274 82.64 228.002 81.576 228.002 80.376C228.002 79.176 228.274 78.12 228.818 77.208C229.378 76.28 230.138 75.56 231.098 75.048C232.058 74.536 233.138 74.28 234.338 74.28C235.458 74.28 236.466 74.512 237.362 74.976C238.258 75.44 238.97 76.128 239.498 77.04C240.026 77.952 240.29 79.064 240.29 80.376C240.29 81.688 240.026 82.8 239.498 83.712C238.97 84.624 238.258 85.32 237.362 85.8C236.466 86.28 235.458 86.52 234.338 86.52ZM234.506 85.008C235.434 85.008 236.258 84.816 236.978 84.432C237.698 84.032 238.266 83.488 238.682 82.8C239.098 82.096 239.306 81.288 239.306 80.376C239.306 79.464 239.098 78.664 238.682 77.976C238.266 77.288 237.698 76.752 236.978 76.368C236.258 75.968 235.434 75.768 234.506 75.768C233.594 75.768 232.77 75.968 232.034 76.368C231.314 76.752 230.746 77.288 230.33 77.976C229.93 78.664 229.73 79.464 229.73 80.376C229.73 81.288 229.93 82.096 230.33 82.8C230.746 83.488 231.314 84.032 232.034 84.432C232.77 84.816 233.594 85.008 234.506 85.008ZM251.056 87.12C249.744 87.12 248.592 86.848 247.6 86.304C246.608 85.744 245.832 84.984 245.272 84.024C244.712 83.048 244.432 81.936 244.432 80.688C244.432 79.44 244.696 78.336 245.224 77.376C245.768 76.416 246.504 75.664 247.432 75.12C248.376 74.56 249.432 74.28 250.6 74.28C251.784 74.28 252.832 74.552 253.744 75.096C254.672 75.624 255.4 76.376 255.928 77.352C256.456 78.312 256.72 79.424 256.72 80.688C256.72 80.768 256.712 80.856 256.696 80.952C256.696 81.032 256.696 81.12 256.696 81.216H245.728V79.944H255.784L255.112 80.448C255.112 79.536 254.912 78.728 254.512 78.024C254.128 77.304 253.6 76.744 252.928 76.344C252.256 75.944 251.48 75.744 250.6 75.744C249.736 75.744 248.96 75.944 248.272 76.344C247.584 76.744 247.048 77.304 246.664 78.024C246.28 78.744 246.088 79.568 246.088 80.496V80.76C246.088 81.72 246.296 82.568 246.712 83.304C247.144 84.024 247.736 84.592 248.488 85.008C249.256 85.408 250.128 85.608 251.104 85.608C251.872 85.608 252.584 85.472 253.24 85.2C253.912 84.928 254.488 84.512 254.968 83.952L255.928 85.056C255.368 85.728 254.664 86.24 253.816 86.592C252.984 86.944 252.064 87.12 251.056 87.12ZM260.189 87V74.4H261.821V77.832L261.653 77.232C262.005 76.272 262.597 75.544 263.429 75.048C264.261 74.536 265.293 74.28 266.525 74.28V75.936C266.461 75.936 266.397 75.936 266.333 75.936C266.269 75.92 266.205 75.912 266.141 75.912C264.812 75.912 263.773 76.32 263.021 77.136C262.269 77.936 261.893 79.08 261.893 80.568V87H260.189Z" fill="white"/>
<defs>
<clipPath id="clip0_67_535">
<rect width="271" height="52" fill="white"/>
</clipPath>
</defs>
</svg>
