<svg width="48" height="48" viewBox="0 0 48 48" fill="none" xmlns="http://www.w3.org/2000/svg">
<g id="Property 1=refresh button">
<g clip-path="url(#clip0_24_1848)">
<path id="Vector" d="M31.1252 12.1967L29.1252 15.6608C27.4119 14.6675 25.4423 14.2053 23.4659 14.3328C21.4896 14.4603 19.5957 15.1717 18.0242 16.3769C16.4527 17.5821 15.2745 19.2268 14.6388 21.1024C14.0032 22.9781 13.9388 25.0002 14.4538 26.9125L10.6016 27.9447C9.88476 25.27 9.97721 22.4428 10.8672 19.8206C11.7573 17.1985 13.4049 14.8992 15.6018 13.2135C17.7987 11.5278 20.4461 10.5314 23.2093 10.3504C25.9725 10.1695 28.7272 10.8119 31.1252 12.1967ZM37.6489 20.6974C38.3657 23.3721 38.2733 26.1993 37.3832 28.8214C36.4932 31.4436 34.8455 33.7429 32.6487 35.4286C30.4518 37.1142 27.8043 38.1106 25.0412 38.2916C22.278 38.4726 19.5232 37.8301 17.1252 36.4454L19.1252 32.9813C20.8386 33.9745 22.8082 34.4367 24.7845 34.3092C26.7608 34.1817 28.6548 33.4703 30.2263 32.2651C31.7977 31.0599 32.976 29.4152 33.6116 27.5396C34.2473 25.664 34.3117 23.6418 33.7967 21.7296L37.6489 20.6974ZM14.1252 41.6415L11.197 30.7133L22.1252 27.7851L14.1252 41.6415ZM26.1252 20.8569L34.1252 7.00051L37.0534 17.9287L26.1252 20.8569Z" fill="#7AFEFE"/>
</g>
</g>
<defs>
<clipPath id="clip0_24_1848">
<rect width="48" height="48" rx="24" fill="white"/>
</clipPath>
</defs>
</svg>
