<svg width="24" height="24" viewBox="0 0 24 24" fill="none" xmlns="http://www.w3.org/2000/svg">
<path d="M2.58601 1.57946C2.46046 1.51667 2.31981 1.49037 2.18005 1.50356C2.04029 1.51675 1.90704 1.5689 1.79546 1.65407C1.68387 1.73925 1.59843 1.85403 1.54885 1.98536C1.49927 2.11669 1.48755 2.2593 1.51501 2.39696L3.61951 9.67196C3.65875 9.80754 3.73545 9.92929 3.84079 10.0232C3.94613 10.1172 4.07584 10.1795 4.21501 10.203L12.75 11.6325C13.152 11.712 13.152 12.288 12.75 12.3675L4.21501 13.797C4.07584 13.8205 3.94613 13.8828 3.84079 13.9767C3.73545 14.0706 3.65875 14.1924 3.61951 14.328L1.51501 21.603C1.48755 21.7406 1.49927 21.8832 1.54885 22.0146C1.59843 22.1459 1.68387 22.2607 1.79546 22.3459C1.90704 22.431 2.04029 22.4832 2.18005 22.4964C2.31981 22.5096 2.46046 22.4833 2.58601 22.4205L22.086 12.6705C22.2104 12.6081 22.315 12.5124 22.3881 12.394C22.4612 12.2755 22.5 12.1391 22.5 12C22.5 11.8608 22.4612 11.7244 22.3881 11.606C22.315 11.4876 22.2104 11.3918 22.086 11.3295L2.58601 1.57946Z" fill="white"/>
</svg>
