<svg width="56" height="56" viewBox="0 0 56 56" fill="none" xmlns="http://www.w3.org/2000/svg">
<g clip-path="url(#clip0_1_1639)">
<circle cx="28" cy="28" r="28" fill="#4C4C4C"/>
<path d="M48.1544 44.7438C50.8471 41.504 52.7199 37.6633 53.6144 33.5467C54.5089 29.43 54.3987 25.1584 53.2932 21.0934C52.1876 17.0283 50.1193 13.2893 47.2631 10.1926C44.4069 7.09594 40.8469 4.73275 36.8843 3.30293C32.9216 1.87311 28.6728 1.41873 24.4974 1.97823C20.322 2.53773 16.3428 4.09465 12.8963 6.51728C9.44991 8.93991 6.63765 12.157 4.69749 15.8963C2.75732 19.6357 1.74632 23.7874 1.75001 28.0001C1.75143 34.1242 3.90953 40.0522 7.84563 44.7438L7.80814 44.7757C7.93939 44.9332 8.08939 45.0682 8.22439 45.2238C8.39314 45.417 8.57501 45.5988 8.74938 45.7863C9.27438 46.3563 9.81439 46.9038 10.3806 47.4176C10.5531 47.5751 10.7313 47.7213 10.9056 47.8713C11.5056 48.3888 12.1225 48.8801 12.7619 49.3376C12.8444 49.3938 12.9194 49.467 13.0019 49.5251V49.5026C17.3933 52.5929 22.6321 54.2514 28.0019 54.2514C33.3717 54.2514 38.6104 52.5929 43.0019 49.5026V49.5251C43.0844 49.467 43.1575 49.3938 43.2419 49.3376C43.8794 48.8782 44.4981 48.3888 45.0981 47.8713C45.2725 47.7213 45.4506 47.5732 45.6231 47.4176C46.1894 46.902 46.7294 46.3563 47.2544 45.7863C47.4288 45.5988 47.6088 45.417 47.7794 45.2238C47.9125 45.0682 48.0644 44.9332 48.1956 44.7738L48.1544 44.7438ZM28 13.0001C29.6688 13.0001 31.3001 13.4949 32.6876 14.4221C34.0752 15.3492 35.1566 16.6669 35.7952 18.2087C36.4339 19.7504 36.6009 21.4469 36.2754 23.0837C35.9498 24.7204 35.1462 26.2238 33.9662 27.4038C32.7862 28.5838 31.2828 29.3874 29.6461 29.713C28.0094 30.0385 26.3129 29.8714 24.7711 29.2328C23.2294 28.5942 21.9116 27.5127 20.9845 26.1252C20.0574 24.7377 19.5625 23.1064 19.5625 21.4376C19.5625 19.1998 20.4515 17.0537 22.0338 15.4714C23.6161 13.889 25.7622 13.0001 28 13.0001ZM13.0131 44.7438C13.0457 42.2819 14.0462 39.9317 15.7982 38.2018C17.5502 36.4719 19.9129 35.5013 22.375 35.5001H33.625C36.0872 35.5013 38.4498 36.4719 40.2018 38.2018C41.9539 39.9317 42.9544 42.2819 42.9869 44.7438C38.8747 48.4495 33.5355 50.5002 28 50.5002C22.4645 50.5002 17.1253 48.4495 13.0131 44.7438Z" fill="#242424"/>
</g>
<defs>
<clipPath id="clip0_1_1639">
<rect width="56" height="56" fill="white"/>
</clipPath>
</defs>
</svg>
